<?xml version='1.0' encoding='utf-8'?>
<svg xmlns="http://www.w3.org/2000/svg" width="100%" height="auto" viewBox="0 0 1000 150" preserveAspectRatio="xMidYMid meet"><polyline points="25,36.83706809749736 50,51.2937634750504 75,48.281546536079546 100,43.09532060815218 125,43.807365291018655 150,55.571355735888304 175,61.0218525625929 200,116.56773749748166 225,118.8698656889011 250,102.2210732177213 275,100.07126792919385 300,95.7460290441867 325,89.2046554519189 350,76.9227461509074 375,39.235651430424355 400,39.235670323053704 425,60.72281271133565 450,50.83319964259375 475,45.65102844356511 500,44.76236359253246 525,44.77964668445837 550,47.427291465371795 575,72.71159829142455 600,87.82754868854346 625,110.7111101320824 650,111.29985528421321 675,110.2927122010177 700,57.6672869553121 725,55.7271933468727 750,50.19953010249979 775,46.91332624028087 800,36.17869605194907 825,37.90214079919131 " style="fill:lightblue;stroke:green;stroke-width:3" vector-effect="non-scaling-stroke" /></svg>