<?xml version='1.0' encoding='utf-8'?>
<svg xmlns="http://www.w3.org/2000/svg" width="100" height="170"><polyline points="5,7.367413619499472 10,10.25875269501008 15,9.65630930721591 20,8.619064121630435 25,8.76147305820373 30,11.11427114717766 35,12.20437051251858 40,23.31354749949633 45,23.77397313778022 50,20.44421464354426 55,20.01425358583877 60,19.14920580883734 65,17.84093109038378 70,15.38454923018148 75,7.84713028608487 80,7.847134064610741 85,12.14456254226713 90,10.16663992851875 95,9.130205688713023 100,8.952472718506492 105,8.955929336891675 110,9.485458293074359 115,14.54231965828491 120,17.56550973770869 125,22.14222202641648 130,22.25997105684264 135,22.05854244020354 140,11.53345739106242 145,11.14543866937454 150,10.03990602049996 155,9.382665248056174 160,7.235739210389815 165,7.580428159838261 " style="fill:lightblue;stroke:green;stroke-width:3" /></svg>